<?xml version="1.0" encoding="utf-8"?>
<!-- Generator: Adobe Illustrator 23.0.6, SVG Export Plug-In . SVG Version: 6.00 Build 0)  -->
<svg version="1.1" id="Layer_1" xmlns="http://www.w3.org/2000/svg" xmlns:xlink="http://www.w3.org/1999/xlink" x="0px" y="0px"
	 viewBox="0 0 1000 126.11" style="enable-background:new 0 0 1000 126.11;" xml:space="preserve">
<style type="text/css">
	.st0{fill:url(#SVGID_1_);}
	.st1{fill:#A2C6DD;}
	.st2{fill-rule:evenodd;clip-rule:evenodd;fill:#676767;}
	.st3{fill:#676767;}
	.st4{fill:#E8F0F6;}
	.st5{fill:#EAF2F9;}
	.st6{fill:#CFDFEE;}
	.st7{fill:url(#SVGID_2_);}
	.st8{fill:url(#SVGID_3_);}
	.st9{fill:url(#SVGID_4_);}
	.st10{fill:url(#SVGID_5_);}
	.st11{fill:url(#SVGID_6_);}
	.st12{fill:url(#SVGID_7_);}
	.st13{fill:url(#SVGID_8_);}
	.st14{fill:url(#SVGID_9_);}
	.st15{fill:url(#SVGID_10_);}
	.st16{fill:url(#SVGID_11_);}
	.st17{fill:url(#SVGID_12_);}
	.st18{fill:url(#SVGID_13_);}
	.st19{fill:url(#SVGID_14_);}
	.st20{fill:url(#SVGID_15_);}
	.st21{fill:url(#SVGID_16_);}
	.st22{fill:url(#SVGID_17_);}
	.st23{fill:url(#SVGID_18_);}
	.st24{fill:url(#SVGID_19_);}
	.st25{fill:url(#SVGID_20_);}
	.st26{fill:url(#SVGID_21_);}
	.st27{fill:url(#SVGID_22_);}
	.st28{fill:url(#SVGID_23_);}
	.st29{fill:url(#SVGID_24_);}
	.st30{fill:url(#SVGID_25_);}
	.st31{fill:url(#SVGID_26_);}
	.st32{fill:url(#SVGID_27_);}
	.st33{fill:url(#SVGID_28_);}
	.st34{fill:url(#SVGID_29_);}
	.st35{fill:#515151;}
	.st36{fill:none;stroke:#231F20;stroke-width:2;stroke-miterlimit:10;}
	.st37{fill:#AF0202;stroke:#AF0202;stroke-width:0.5;stroke-miterlimit:10;}
</style>
<linearGradient id="SVGID_1_" gradientUnits="userSpaceOnUse" x1="0" y1="64.945" x2="1000" y2="64.945" gradientTransform="matrix(1 0 0 -1 0 128)">
	<stop  offset="0" style="stop-color:#FFFFFF;stop-opacity:0"/>
	<stop  offset="0.2114" style="stop-color:#F2F2F3;stop-opacity:0"/>
	<stop  offset="0.6057" style="stop-color:#CED0D2;stop-opacity:0"/>
	<stop  offset="1" style="stop-color:#A5A8AB;stop-opacity:0"/>
</linearGradient>
<rect class="st0" width="1000" height="126.11"/>
<path class="st1" d="M496.97,111.4c0.09,0,0.17,0,0.26,0c0.08,0,0.17,0,0.25,0H496.97 M436.93,89.47c-3.57,2.03-2.89,4.05-3.65,5.8
	c-2.12,4.85-4.79,9.72-4.87,14.66c0,0.2,0.02,0.37,0.07,0.52c0.49,0.11,0.95,0.24,1.36,0.38c0.19,0.07,0.6,0.1,0.98,0.11h0.43l0,0
	c-0.08,0-0.16,0-0.24,0c-0.06,0-0.13,0-0.19,0l-1.95,0.01c0.56,0.36,1.72,0.44,3.86,0.44c0.05,0,0.09,0,0.14,0l64.12,0.01
	c-2.35-0.02-4.11-0.27-4.16-1.08c-0.13-1.92-0.98-3.8-1.65-5.7c-0.84-2.39-1.78-4.78-2.68-7.16c-1.47,0.97,0.04,2.22-3.89,2.71
	c-3.38-1.46,1.12-3.55-3.57-4.97c-3.6,1.89-1.94,4.08-4.32,6.06c-6.03-2.88-3.31-6.13-5.63-9.17c-0.68,0.2-1.03,0.25-1.06,0.31
	c-1.58,3.61-3.1,7.23-3.82,10.87c-0.16,0.8-1,1.41-3.52,1.76c-1.44-4.42-4.39-8.63-9.66-12.68c-0.47,1.57-0.94,3.15-1.47,4.93
	c-2.59-1.42-3.16-2.8-3.84-4.17c-0.63,0.48-0.55,0.96-1.03,1.37c-0.36,0.31-1.58,0.6-2.41,0.6c-0.28,0-0.51-0.03-0.66-0.11
	c-1.3-0.68-4.32-0.8-4.5-1.95C438.94,92,437.59,90.9,436.93,89.47"/>
<path class="st1" d="M540.45,89.58c-4.07,2.16-4.94,4.08-5.78,5.8c-2.36,4.8-9.12,9.53-8.44,14.38c0.13,0.92-1.39,1.39-5.89,1.39
	c-0.54,0-1.13-0.01-1.77-0.02c0.96,0.24,2.19,0.29,3.47,0.29c0.93,0,1.88-0.03,2.78-0.03c18.8,0.01,37.6,0.01,56.41,0.01
	s37.62,0,56.42,0c0.8,0,1.63,0.01,2.44,0.01c0.59,0,1.18-0.01,1.75-0.03c-2.22-0.05-4.42-0.14-6.61-0.33
	c3.44-1.15,4.46-2.49,5.2-3.87c-1.55-3.83-4.03-7.68-6.79-11.71c-3.23,1.52,0.18,3.07-6.48,4.18c-5.56-1.23,0.86-3.07-7.86-3.99
	c-2.22,1.88-2.85,3.88-6.9,5.71c-6.09-2.77-8.35-5.56-8.8-8.39c-0.06-0.4,0.45-0.88-2.81-1.13c-1.09,1.15-2.39,2.23-3.1,3.32
	c-1.85,2.84-3.54,5.69-5.08,8.54c-0.38,0.71-1.71,1.23-5.83,1.56c-1.81-3.7-7.58-7.23-10.51-10.85c-0.35,0.04-0.69,0.06-1.03,0.06
	c-0.66,0-1.32-0.06-1.97-0.12c-0.66-0.06-1.31-0.12-1.97-0.12c-0.56,0-1.12,0.04-1.69,0.17c-0.57,0.99,0.05,2.01-2.87,3.14
	c-2.22-1.86-4.25-3.56-6.27-5.25c2.32,1.97-10.49,1.73-12.65,3.09C541.45,93.62,543.48,91.7,540.45,89.58"/>
<path class="st1" d="M649.82,95.83c-7.46,3.08-6.68,6.55-8.62,9.86c-0.29,0.49-0.51,0.99-0.78,1.48c-0.74,1.38-1.76,2.72-5.2,3.87
	c2.19,0.18,4.4,0.28,6.61,0.33c1.24,0.03,2.48,0.04,3.72,0.04c3.99,0,7.99-0.1,11.96-0.12c0.21,0,0.43,0,0.65,0
	c2.2,0,4.41,0.03,6.62,0.06s4.42,0.06,6.63,0.06c3.78,0,7.55-0.09,11.27-0.41c-4.82-0.23-6.29-1.24-7.08-2.35
	c-0.86-1.23-1.58-2.46-2.14-3.7c-0.33-0.74-1.98-1.26-4.09-1.46c-0.2-0.02-0.37-0.03-0.52-0.03c-1.65,0-1,1.01-3.42,1.01
	c-0.28-0.76-0.14-1.51-0.92-2.18c-0.68-0.58,1.37-1.55-2.61-1.72c-0.14-0.01-0.28-0.01-0.41-0.01c-1.25,0-1.87,0.28-2.55,0.56
	c-0.67,0.28-1.4,0.56-2.87,0.56c-0.18,0-0.37,0-0.58-0.01C655.51,99.52,651.28,97.75,649.82,95.83"/>
<path class="st1" d="M431.25,110.95h-0.43c0.06,0,0.13,0,0.19,0C431.09,110.95,431.17,110.95,431.25,110.95 M345.42,89.41
	c-4.26,3.76-15.88,6.97-17.55,7.33c-1.77,2.49-0.54,12.12-4.4,14.66l105.39-0.45l1.95-0.01c-0.39-0.01-0.79-0.04-0.98-0.11
	c-0.41-0.14-0.87-0.27-1.36-0.38c-3.27-0.74-8.02-0.92-10.15-2.52c-1.62,1.64-3.42,2.28-4.47,2.28c-0.49,0-0.82-0.14-0.89-0.38
	c-0.9-2.86-7.5-5.61-6.95-8.49c0.45-2.37-14.92-4.39-16.16-6.65c-0.89,0.6-1.56,1.21-1.51,1.81c0.14,1.9-1.95,3.67-3.1,5.5
	c-0.04,0.07-0.05,0.1-0.06,0.1c-0.02,0,0.16-0.88-1.82-3.72c-0.2-0.29-6.35-8.09-8.93-8.09c-0.02,0-0.04,0-0.07,0
	c-1.27,0.07-3.59,0.05-3.29,0.84c0.08,0.22,0.02,0.31-0.15,0.31c-0.37,0-1.28-0.45-2.27-0.9c-0.99-0.45-2.08-0.9-2.83-0.9
	c-0.27,0-0.49,0.06-0.65,0.2c-0.46,0.4-9.42,11.85-9.13,12.99c0.16,0.63-0.92,1.11-2.76,1.52c-0.07-2.58-2.3-4.98-2.61-7.45
	C350.37,94.49,350.43,91.99,345.42,89.41"/>
<path class="st1" d="M859.15,89.91c-1.2,0.31-1.17,0.77-1.28,1.22c-1.11,4.79-2.44,9.58-2.72,14.4c-0.12,2.05-2.7,3.44-5.22,4.93
	c-0.18,0.11-0.34,0.19-0.65,0.19c-0.13,0-0.28-0.01-0.46-0.04c-1.24-0.21-2-0.34-2.63-0.34c-1.01,0-1.67,0.32-3.38,1.14
	c20.95,0,41.61,0,62.27,0c-1.2-0.18-2.1-0.48-2.64-1.02c-0.49-0.49-1.08-0.7-1.75-0.7c-0.61,0-1.29,0.18-2.02,0.5
	c-0.88,0.38-1.61,0.57-2.27,0.57c-0.88,0-1.66-0.33-2.59-0.94c-1.88-1.25-1.67-3.05-4-3.92c-2.63-0.99-4.13-2.13-5.55-3.45
	c-1.02,0.27-1.71,0.96-2.59,0.96c-0.18,0-0.36-0.03-0.56-0.09c-0.78-0.26-1.36-0.36-1.81-0.36c-1.21,0-1.38,0.76-1.7,1.15
	c-0.8,0.98-1.54,2.01-1.44,3.09c0.06,0.66-0.85,1.11-1.75,1.87c-0.48-1.79-0.78-3.25-2.13-4.6c-0.26-0.26-0.51-0.63-1.23-0.63
	c-0.03,0-0.06,0-0.09,0c-1.03,0.04-0.99,0.47-1.08,0.82c-0.17,0.6,0.35,1.28-1.34,1.86c-0.3-1.25-1.75-2.38-3.79-2.74
	c-1.74-0.31-1.71-0.6-1.86-1.15C861.66,98.37,860.4,94.16,859.15,89.91"/>
<path class="st1" d="M722.04,99.1c-0.92,0.95-1.08,1.87-1.53,2.77c-1.6,3.15-0.64,6.52-4.93,9.53c9.09,0,18.03,0,27.17,0
	c-1.34-1.79-0.45-3.82-4.36-5.29c-0.41,0.69-0.27,1.46-2.35,2.12c0.41-3.12-8.67-4.16-8.06-7.28c-0.62,1.53-0.66,3.07-3.67,4.55
	C723.47,103.15,722.76,101.12,722.04,99.1"/>
<path class="st1" d="M927.17,111.39c-0.75,0-1.5,0-2.25,0c0.43,0.01,0.83,0.02,1.2,0.02C926.5,111.4,926.85,111.4,927.17,111.39
	 M940.12,100.91c-2.99,0.27-3.86,0.68-4.13,1.11c-1.61,2.64-5.03,5.23-5.28,7.9c-0.06,0.7-0.06,1.36-3.54,1.46
	c13.79,0,27.35,0,40.54,0c-3.45-3.15-6.97-6.27-18.05-9c0.08,1.07-2.1,1.78-4.5,2.51C939.56,103.74,941.09,102.28,940.12,100.91"/>
<rect x="323.2" y="118.81" class="st2" width="92.44" height="4.04"/>
<rect x="426.55" y="118.39" class="st2" width="69.71" height="5.39"/>
<rect x="523.1" y="118.14" class="st2" width="156.63" height="5.39"/>
<rect x="718.5" y="118.14" class="st2" width="26.29" height="5.39"/>
<rect x="849.35" y="118.14" class="st2" width="54.38" height="5.39"/>
<rect x="929.18" y="118.14" class="st2" width="34.94" height="5.39"/>
<polyline class="st3" points="289.12,121.5 992.82,121.5 992.82,120.17 289.12,120.17 "/>
<path class="st4" d="M537.15-5.2c0.08,0,0.16,0,0.24,0s0.16,0,0.24,0H537.15"/>
<path class="st4" d="M967.29-5.21c-0.74,0-1.49,0-2.23,0c0.43,0.01,0.83,0.01,1.19,0.01C966.63-5.2,966.98-5.2,967.29-5.21"/>
<path class="st4" d="M523.76,33.67c0.08,0,0.16,0,0.25,0c0.08,0,0.16,0,0.24,0H523.76 M463.67,11.73c-3.57,2.03-2.89,4.05-3.65,5.8
	c-2.12,4.85-4.79,9.72-4.87,14.66c0,0.2,0.02,0.37,0.07,0.52c0.49,0.11,0.95,0.24,1.36,0.38c0.19,0.07,0.61,0.1,1,0.11h0.41l0,0
	c-0.07,0-0.15,0-0.23,0c-0.06,0-0.12,0-0.18,0l-1.97,0.01c0.56,0.36,1.71,0.44,3.84,0.44c0.05,0,0.1,0,0.15,0l64.16,0.01
	c-2.37-0.02-4.14-0.27-4.19-1.08c-0.13-1.91-0.98-3.8-1.65-5.7c-0.84-2.39-1.78-4.78-2.68-7.16c-1.47,0.97,0.04,2.22-3.9,2.71
	c-3.38-1.46,1.12-3.55-3.57-4.97c-3.6,1.89-1.95,4.08-4.32,6.06c-6.03-2.89-3.31-6.13-5.63-9.17c-0.68,0.2-1.03,0.25-1.06,0.31
	c-1.58,3.61-3.1,7.23-3.82,10.87c-0.16,0.8-1,1.41-3.52,1.76c-1.44-4.42-4.39-8.63-9.66-12.68c-0.47,1.57-0.94,3.15-1.47,4.93
	c-2.59-1.42-3.15-2.79-3.83-4.17c-0.63,0.49-0.55,0.96-1.03,1.37c-0.36,0.31-1.58,0.6-2.41,0.6c-0.28,0-0.51-0.03-0.66-0.11
	c-1.3-0.68-4.31-0.8-4.5-1.95C465.68,14.27,464.34,13.16,463.67,11.73"/>
<path class="st4" d="M567.21,11.84c-4.07,2.16-4.94,4.09-5.79,5.8c-2.36,4.8-9.12,9.53-8.44,14.37c0.13,0.92-1.4,1.39-5.9,1.39
	c-0.54,0-1.13-0.01-1.76-0.02c0.96,0.24,2.19,0.28,3.47,0.28c0.93,0,1.89-0.03,2.79-0.03c18.8,0,37.6,0.01,56.41,0.01
	s37.61,0,56.42,0c0.8,0,1.63,0.01,2.44,0.01c0.59,0,1.17-0.01,1.74-0.03c-2.22-0.05-4.42-0.15-6.61-0.33
	c3.44-1.15,4.46-2.49,5.19-3.87c-1.55-3.83-4.03-7.68-6.79-11.71c-3.23,1.51,0.18,3.06-6.48,4.18c-5.56-1.23,0.86-3.07-7.86-3.99
	c-2.22,1.88-2.85,3.88-6.9,5.71c-6.09-2.77-8.35-5.55-8.8-8.39c-0.06-0.4,0.45-0.88-2.81-1.13c-1.09,1.15-2.39,2.23-3.1,3.32
	c-1.85,2.84-3.54,5.69-5.08,8.54c-0.38,0.71-1.71,1.23-5.83,1.56c-1.81-3.7-7.58-7.23-10.51-10.85c-0.35,0.04-0.69,0.06-1.04,0.06
	c-0.66,0-1.32-0.06-1.97-0.12c-0.66-0.06-1.31-0.12-1.97-0.12c-0.56,0-1.12,0.04-1.69,0.17c-0.57,0.99,0.05,2.01-2.87,3.15
	c-2.22-1.86-4.25-3.56-6.27-5.25c2.32,1.96-10.49,1.73-12.65,3.09C568.2,15.88,570.24,13.96,567.21,11.84"/>
<path class="st4" d="M676.58,18.1c-7.46,3.08-6.68,6.55-8.61,9.86c-0.29,0.49-0.52,0.99-0.78,1.48c-0.74,1.38-1.75,2.72-5.19,3.87
	c2.19,0.18,4.4,0.28,6.61,0.33c1.24,0.03,2.49,0.04,3.73,0.04c3.98,0,7.98-0.1,11.95-0.12c0.21,0,0.43,0,0.65,0
	c2.2,0,4.41,0.03,6.62,0.06c2.21,0.03,4.42,0.06,6.62,0.06c3.78,0,7.55-0.09,11.27-0.41c-4.82-0.23-6.29-1.24-7.08-2.35
	c-0.86-1.23-1.58-2.46-2.14-3.7c-0.33-0.74-1.98-1.26-4.09-1.46c-0.2-0.02-0.37-0.03-0.52-0.03c-1.65,0-1.01,1.01-3.42,1.01
	c-0.28-0.76-0.14-1.51-0.93-2.18c-0.68-0.58,1.37-1.55-2.61-1.73c-0.14-0.01-0.28-0.01-0.4-0.01c-1.25,0-1.88,0.28-2.55,0.56
	c-0.67,0.28-1.4,0.56-2.87,0.56c-0.18,0-0.37,0-0.58-0.01C682.27,21.79,678.04,20.02,676.58,18.1"/>
<path class="st4" d="M457.99,33.21h-0.41c0.06,0,0.12,0,0.18,0C457.84,33.21,457.92,33.21,457.99,33.21 M372.17,11.68
	c-4.26,3.76-15.88,6.97-17.55,7.33c-1.77,2.49-0.54,12.12-4.4,14.66l105.39-0.45l1.97-0.01c-0.39-0.01-0.81-0.04-1-0.11
	c-0.41-0.14-0.87-0.27-1.36-0.38c-3.27-0.74-8.02-0.91-10.15-2.52c-1.62,1.64-3.42,2.28-4.47,2.28c-0.49,0-0.82-0.14-0.89-0.38
	c-0.9-2.86-7.5-5.61-6.95-8.49c0.45-2.37-14.92-4.39-16.16-6.65c-0.89,0.6-1.56,1.21-1.51,1.81c0.14,1.9-1.95,3.67-3.1,5.5
	c-0.04,0.07-0.05,0.1-0.06,0.1c-0.02,0,0.16-0.89-1.82-3.72c-0.2-0.29-6.35-8.09-8.93-8.09c-0.02,0-0.04,0-0.07,0
	c-1.27,0.07-3.59,0.05-3.29,0.84c0.08,0.22,0.02,0.31-0.15,0.31c-0.37,0-1.27-0.45-2.27-0.9c-0.99-0.45-2.08-0.89-2.83-0.89
	c-0.27,0-0.49,0.06-0.65,0.19c-0.46,0.4-9.42,11.85-9.13,12.99c0.16,0.63-0.92,1.11-2.76,1.52c-0.07-2.58-2.3-4.98-2.61-7.45
	C377.11,16.76,377.17,14.25,372.17,11.68"/>
<path class="st4" d="M885.9,12.18c-1.2,0.31-1.17,0.77-1.28,1.22c-1.11,4.79-2.44,9.58-2.72,14.4c-0.12,2.04-2.7,3.44-5.22,4.93
	c-0.18,0.11-0.34,0.19-0.65,0.19c-0.13,0-0.28-0.01-0.46-0.05c-1.24-0.21-2-0.34-2.63-0.34c-1.01,0-1.67,0.32-3.38,1.14
	c20.95,0,41.61,0,62.27,0c-1.2-0.18-2.1-0.48-2.64-1.02c-0.49-0.49-1.08-0.7-1.75-0.7c-0.61,0-1.29,0.18-2.02,0.5
	c-0.88,0.38-1.61,0.57-2.27,0.57c-0.88,0-1.66-0.33-2.59-0.94c-1.88-1.25-1.67-3.05-4-3.92c-2.63-0.99-4.13-2.13-5.55-3.45
	c-1.02,0.27-1.71,0.96-2.59,0.96c-0.18,0-0.36-0.03-0.56-0.09c-0.78-0.26-1.36-0.36-1.8-0.36c-1.21,0-1.39,0.76-1.7,1.15
	c-0.8,0.98-1.54,2.01-1.44,3.09c0.06,0.66-0.85,1.11-1.75,1.87c-0.48-1.79-0.78-3.24-2.13-4.6c-0.26-0.26-0.51-0.63-1.23-0.63
	c-0.03,0-0.06,0-0.09,0c-1.03,0.04-0.99,0.47-1.09,0.82c-0.17,0.6,0.35,1.28-1.34,1.86c-0.3-1.25-1.75-2.38-3.8-2.74
	c-1.74-0.31-1.71-0.6-1.86-1.15C888.41,20.64,887.16,16.43,885.9,12.18"/>
<path class="st4" d="M748.8,21.37c-0.92,0.95-1.08,1.87-1.54,2.77c-1.6,3.15-0.64,6.52-4.93,9.53c9.09,0,18.03,0,27.17,0
	c-1.34-1.79-0.45-3.82-4.36-5.29c-0.4,0.69-0.26,1.45-2.35,2.12c0.41-3.12-8.67-4.16-8.06-7.28c-0.62,1.53-0.66,3.07-3.67,4.55
	C750.23,25.41,749.51,23.39,748.8,21.37"/>
<path class="st4" d="M953.91,33.65c-0.74,0-1.49,0-2.23,0c0.43,0.01,0.83,0.01,1.2,0.01C953.25,33.67,953.6,33.66,953.91,33.65
	 M966.88,23.18c-2.99,0.27-3.86,0.68-4.13,1.11c-1.61,2.64-5.03,5.23-5.28,7.9c-0.06,0.7-0.06,1.36-3.56,1.47
	c13.79,0,27.36,0,40.55,0c-3.45-3.15-6.97-6.27-18.05-9c0.08,1.07-2.1,1.78-4.51,2.51C966.32,26,967.85,24.55,966.88,23.18"/>
<path class="st5" d="M510.41,72.54c0.08,0,0.15,0,0.23,0c0.07,0,0.15,0,0.22,0H510.41 M450.3,50.6c-3.57,2.03-2.89,4.05-3.65,5.81
	c-2.12,4.85-4.79,9.72-4.87,14.66c0,0.2,0.02,0.37,0.07,0.52c0.49,0.11,0.95,0.24,1.36,0.38c0.2,0.07,0.62,0.1,1.02,0.11h0.4l0,0
	c-0.07,0-0.15,0-0.23,0c-0.06,0-0.11,0-0.17,0l-1.98,0.01c0.56,0.35,1.71,0.43,3.83,0.43c0.05,0,0.11,0,0.16,0l64.18,0.01
	c-2.38-0.02-4.17-0.27-4.23-1.08c-0.13-1.91-0.98-3.8-1.65-5.7c-0.84-2.39-1.78-4.78-2.68-7.17c-1.47,0.97,0.04,2.23-3.9,2.71
	c-3.38-1.46,1.12-3.55-3.58-4.97c-3.6,1.89-1.94,4.08-4.32,6.06c-6.03-2.89-3.31-6.13-5.63-9.17c-0.68,0.19-1.03,0.25-1.06,0.31
	c-1.58,3.61-3.1,7.23-3.82,10.87c-0.16,0.8-1,1.41-3.51,1.76c-1.44-4.42-4.39-8.63-9.66-12.68c-0.47,1.57-0.94,3.15-1.47,4.93
	c-2.59-1.42-3.15-2.79-3.83-4.17c-0.63,0.49-0.55,0.96-1.03,1.37c-0.36,0.3-1.58,0.6-2.41,0.6c-0.28,0-0.51-0.03-0.66-0.11
	c-1.3-0.68-4.32-0.8-4.5-1.95C452.31,53.13,450.96,52.03,450.3,50.6"/>
<path class="st5" d="M553.83,50.71c-4.07,2.16-4.94,4.09-5.79,5.8c-2.36,4.8-9.12,9.53-8.44,14.37c0.13,0.92-1.4,1.39-5.91,1.39
	c-0.54,0-1.13-0.01-1.75-0.02c0.96,0.23,2.19,0.28,3.47,0.28c0.93,0,1.89-0.03,2.79-0.03c18.33,0,36.65,0.01,54.99,0.01
	c19.28,0,38.56,0,57.84,0c0.8,0,1.63,0.01,2.44,0.01c0.59,0,1.17-0.01,1.74-0.03c-2.21-0.05-4.42-0.15-6.61-0.33
	c3.44-1.15,4.46-2.49,5.19-3.87c-1.55-3.83-4.03-7.68-6.79-11.71c-3.23,1.51,0.18,3.07-6.48,4.18c-5.56-1.24,0.86-3.07-7.86-3.99
	c-2.22,1.89-2.86,3.88-6.9,5.71c-6.09-2.77-8.35-5.55-8.8-8.39c-0.06-0.4,0.45-0.88-2.81-1.13c-1.09,1.15-2.39,2.23-3.1,3.32
	c-1.85,2.84-3.54,5.69-5.08,8.54c-0.38,0.71-1.71,1.23-5.83,1.56c-1.81-3.7-7.58-7.23-10.51-10.85c-0.35,0.04-0.69,0.06-1.04,0.06
	c-0.66,0-1.31-0.06-1.97-0.12c-0.66-0.06-1.31-0.12-1.97-0.12c-0.56,0-1.12,0.04-1.69,0.17c-0.57,0.99,0.05,2.01-2.87,3.14
	c-2.22-1.86-4.25-3.56-6.27-5.25c2.32,1.96-10.49,1.73-12.65,3.09C554.82,54.75,556.86,52.83,553.83,50.71"/>
<path class="st6" d="M663.2,56.97c-7.46,3.08-6.68,6.55-8.61,9.86c-0.29,0.49-0.52,0.98-0.78,1.47c-0.74,1.38-1.76,2.72-5.19,3.87
	c2.19,0.18,4.39,0.28,6.61,0.33c1.25,0.03,2.49,0.04,3.74,0.04c3.98,0,7.98-0.1,11.94-0.11c0.21,0,0.43,0,0.65,0
	c2.2,0,4.41,0.03,6.62,0.06s4.42,0.06,6.62,0.06c3.78,0,7.55-0.09,11.27-0.41c-4.82-0.23-6.29-1.24-7.08-2.35
	c-0.86-1.23-1.58-2.46-2.14-3.7c-0.33-0.74-1.98-1.26-4.09-1.46c-0.2-0.02-0.37-0.03-0.52-0.03c-1.65,0-1.01,1.01-3.42,1.01
	c-0.28-0.76-0.14-1.51-0.93-2.18c-0.68-0.58,1.37-1.55-2.61-1.73c-0.14-0.01-0.27-0.01-0.4-0.01c-1.26,0-1.88,0.28-2.55,0.56
	c-0.67,0.28-1.4,0.56-2.88,0.56c-0.18,0-0.37,0-0.57-0.01C668.89,60.65,664.66,58.89,663.2,56.97"/>
<path class="st5" d="M444.62,72.08h-0.4c0.06,0,0.11,0,0.17,0C444.47,72.08,444.55,72.08,444.62,72.08 M358.79,50.55
	c-4.26,3.76-15.88,6.97-17.55,7.33c-1.77,2.49-0.54,12.12-4.4,14.66l105.39-0.45l1.98-0.01c-0.4-0.01-0.82-0.04-1.02-0.11
	c-0.41-0.14-0.87-0.27-1.36-0.38c-3.27-0.74-8.02-0.91-10.15-2.52c-1.62,1.64-3.42,2.28-4.47,2.28c-0.49,0-0.82-0.14-0.89-0.38
	c-0.9-2.86-7.5-5.61-6.95-8.49c0.45-2.37-14.92-4.39-16.16-6.65c-0.89,0.6-1.56,1.21-1.51,1.81c0.14,1.9-1.95,3.67-3.1,5.5
	c-0.04,0.07-0.05,0.1-0.06,0.1c-0.02,0,0.16-0.89-1.82-3.72c-0.2-0.29-6.35-8.09-8.93-8.09c-0.02,0-0.04,0-0.07,0
	c-1.27,0.07-3.59,0.05-3.29,0.84c0.08,0.22,0.02,0.31-0.15,0.31c-0.37,0-1.27-0.45-2.27-0.89c-0.99-0.45-2.08-0.9-2.83-0.9
	c-0.27,0-0.49,0.06-0.65,0.2c-0.46,0.4-9.42,11.85-9.13,12.99c0.16,0.63-0.92,1.11-2.76,1.52c-0.07-2.58-2.3-4.97-2.61-7.45
	C363.74,55.63,363.8,53.12,358.79,50.55"/>
<path class="st6" d="M872.52,51.04c-1.2,0.31-1.17,0.77-1.28,1.22c-1.11,4.79-2.44,9.58-2.72,14.4c-0.12,2.04-2.7,3.44-5.22,4.93
	c-0.18,0.11-0.34,0.19-0.65,0.19c-0.13,0-0.28-0.01-0.46-0.05c-1.23-0.21-2-0.34-2.63-0.34c-1.01,0-1.67,0.32-3.38,1.14
	c20.95,0,41.61,0,62.27,0c-1.2-0.18-2.1-0.48-2.64-1.02c-0.49-0.49-1.08-0.7-1.75-0.7c-0.61,0-1.29,0.18-2.02,0.5
	c-0.89,0.38-1.61,0.57-2.27,0.57c-0.88,0-1.66-0.33-2.59-0.94c-1.88-1.25-1.67-3.05-4-3.92c-2.63-0.99-4.13-2.13-5.56-3.45
	c-1.01,0.27-1.71,0.96-2.59,0.96c-0.18,0-0.36-0.03-0.56-0.09c-0.78-0.26-1.36-0.36-1.8-0.36c-1.21,0-1.38,0.76-1.7,1.15
	c-0.8,0.98-1.54,2.01-1.44,3.09c0.06,0.66-0.85,1.11-1.75,1.87c-0.48-1.79-0.78-3.24-2.13-4.6c-0.26-0.26-0.51-0.63-1.23-0.63
	c-0.03,0-0.06,0-0.09,0c-1.03,0.04-0.99,0.48-1.09,0.82c-0.17,0.6,0.35,1.28-1.34,1.86c-0.3-1.25-1.75-2.37-3.79-2.74
	c-1.74-0.31-1.71-0.61-1.86-1.15C875.04,59.51,873.78,55.3,872.52,51.04"/>
<path class="st6" d="M735.42,60.23c-0.92,0.95-1.08,1.87-1.54,2.77c-1.6,3.15-0.64,6.52-4.93,9.53c9.09,0,18.03,0,27.17,0
	c-1.34-1.79-0.45-3.82-4.36-5.29c-0.4,0.69-0.26,1.45-2.35,2.12c0.41-3.12-8.67-4.16-8.06-7.28c-0.62,1.53-0.66,3.07-3.67,4.55
	C736.85,64.28,736.13,62.26,735.42,60.23"/>
<path class="st6" d="M940.52,72.52c-0.74,0-1.48,0-2.22,0c0.43,0.01,0.82,0.01,1.19,0.01C939.86,72.54,940.2,72.53,940.52,72.52
	 M953.5,62.05c-3,0.27-3.86,0.67-4.13,1.11c-1.61,2.64-5.03,5.23-5.28,7.9c-0.06,0.7-0.06,1.36-3.57,1.47c13.8,0,27.37,0,40.57,0
	c-3.45-3.15-6.97-6.27-18.05-9c0.08,1.07-2.1,1.78-4.51,2.51C952.94,64.87,954.47,63.42,953.5,62.05"/>
<g>
	
		<linearGradient id="SVGID_2_" gradientUnits="userSpaceOnUse" x1="291.2711" y1="594.4238" x2="292.2713" y2="594.4238" gradientTransform="matrix(-0.2268 -8.7297 8.7297 -0.2268 -5107.957 2718.5525)">
		<stop  offset="0" style="stop-color:#643C3A"/>
		<stop  offset="0.0118" style="stop-color:#643C3A"/>
		<stop  offset="0.3059" style="stop-color:#884244"/>
		<stop  offset="0.8314" style="stop-color:#45373A"/>
		<stop  offset="1" style="stop-color:#45373A"/>
	</linearGradient>
	<path class="st7" d="M16.54,31.21c-0.45-0.14-1.09-0.23-1.95-0.23h-2.72v9.52h2.09v-3.54h0.77c0.91,0,1.59-0.09,2.04-0.27
		c0.45-0.23,0.77-0.54,1-1c0.27-0.45,0.41-1.04,0.41-1.72c0-0.72-0.18-1.31-0.45-1.81C17.36,31.66,17,31.35,16.54,31.21z
		 M13.96,32.57h0.63c0.32,0,0.59,0,0.73,0.04c0.18,0.09,0.32,0.23,0.45,0.45c0.14,0.23,0.18,0.5,0.18,0.86
		c0,0.45-0.04,0.77-0.23,1.04c-0.18,0.27-0.54,0.36-1.13,0.36h-0.63V32.57z"/>
	
		<linearGradient id="SVGID_3_" gradientUnits="userSpaceOnUse" x1="291.2363" y1="594.339" x2="292.2378" y2="594.339" gradientTransform="matrix(-0.2267 -8.7282 8.7282 -0.2267 -5090.3403 2717.3269)">
		<stop  offset="0" style="stop-color:#643C3A"/>
		<stop  offset="0.0118" style="stop-color:#643C3A"/>
		<stop  offset="0.3059" style="stop-color:#884244"/>
		<stop  offset="0.8314" style="stop-color:#45373A"/>
		<stop  offset="1" style="stop-color:#45373A"/>
	</linearGradient>
	<rect x="29.92" y="30.98" class="st8" width="2" height="1.9"/>
	
		<linearGradient id="SVGID_4_" gradientUnits="userSpaceOnUse" x1="291.2471" y1="594.4293" x2="292.2466" y2="594.4293" gradientTransform="matrix(-0.2268 -8.7302 8.7302 -0.2268 -5092.8745 2718.0869)">
		<stop  offset="0" style="stop-color:#643C3A"/>
		<stop  offset="0.0118" style="stop-color:#643C3A"/>
		<stop  offset="0.3059" style="stop-color:#884244"/>
		<stop  offset="0.8314" style="stop-color:#45373A"/>
		<stop  offset="1" style="stop-color:#45373A"/>
	</linearGradient>
	<path class="st9" d="M31.92,33.48h-2v6.71c0,0.54,0,0.82-0.04,1c-0.09,0.14-0.32,0.23-0.54,0.23c-0.09,0-0.18-0.04-0.27-0.04V43
		c0.41,0.04,0.73,0.04,1.04,0.04c0.45,0,0.82-0.04,1.13-0.27c0.27-0.23,0.5-0.54,0.59-0.91c0.05-0.36,0.09-0.86,0.09-1.59
		C31.92,40.27,31.92,33.48,31.92,33.48z"/>
	
		<linearGradient id="SVGID_5_" gradientUnits="userSpaceOnUse" x1="291.2984" y1="594.3347" x2="292.2988" y2="594.3347" gradientTransform="matrix(-0.2268 -8.7313 8.7313 -0.2268 -5087.3472 2718.6968)">
		<stop  offset="0" style="stop-color:#643C3A"/>
		<stop  offset="0.0118" style="stop-color:#643C3A"/>
		<stop  offset="0.3059" style="stop-color:#884244"/>
		<stop  offset="0.8314" style="stop-color:#45373A"/>
		<stop  offset="1" style="stop-color:#45373A"/>
	</linearGradient>
	<path class="st10" d="M33.78,34.29c-0.54,0.63-0.82,1.59-0.82,2.81c0,1.04,0.23,1.91,0.77,2.54c0.5,0.63,1.18,1,2.18,1
		c1.5,0,2.45-0.82,2.77-2.45l-1.72-0.09c-0.09,0.82-0.45,1.18-1.04,1.18c-0.23,0-0.45-0.14-0.68-0.32C35.09,38.74,35,38.33,35,37.7
		v-0.36h3.67c0-1.54-0.27-2.59-0.82-3.13c-0.5-0.59-1.18-0.86-2-0.86C35,33.34,34.28,33.7,33.78,34.29z M35.91,34.61
		c0.59,0,0.95,0.45,0.95,1.36l-0.04,0.23H35C35,35.16,35.32,34.61,35.91,34.61z"/>
	
		<linearGradient id="SVGID_6_" gradientUnits="userSpaceOnUse" x1="291.2888" y1="594.4035" x2="292.2885" y2="594.4035" gradientTransform="matrix(-0.2268 -8.7298 8.7298 -0.2268 -5102.0332 2718.5859)">
		<stop  offset="0" style="stop-color:#643C3A"/>
		<stop  offset="0.0118" style="stop-color:#643C3A"/>
		<stop  offset="0.3059" style="stop-color:#884244"/>
		<stop  offset="0.8314" style="stop-color:#45373A"/>
		<stop  offset="1" style="stop-color:#45373A"/>
	</linearGradient>
	<path class="st11" d="M20.94,37.47c0-1.45,0.45-2.18,1.45-2.18c0.04,0,0.14,0,0.27,0.04v-1.9c-0.09-0.05-0.23-0.05-0.27-0.05
		c-0.82,0-1.36,0.59-1.68,1.77v-1.68h-1.72v7.03h1.95C20.94,40.5,20.94,37.47,20.94,37.47z"/>
	
		<linearGradient id="SVGID_7_" gradientUnits="userSpaceOnUse" x1="291.2343" y1="594.3977" x2="292.2346" y2="594.3977" gradientTransform="matrix(-0.2268 -8.7313 8.7313 -0.2268 -5097.8003 2718.4077)">
		<stop  offset="0" style="stop-color:#643C3A"/>
		<stop  offset="0.0118" style="stop-color:#643C3A"/>
		<stop  offset="0.3059" style="stop-color:#884244"/>
		<stop  offset="0.8314" style="stop-color:#45373A"/>
		<stop  offset="1" style="stop-color:#45373A"/>
	</linearGradient>
	<path class="st12" d="M25.89,33.34c-1.86,0-2.81,1.18-2.81,3.63s0.95,3.67,2.81,3.67c1.91,0,2.86-1.22,2.86-3.67
		C28.74,34.52,27.79,33.34,25.89,33.34z M25.89,34.7c0.32,0,0.5,0.14,0.63,0.45c0.14,0.36,0.23,0.95,0.23,1.81
		c0,0.91-0.09,1.5-0.23,1.81c-0.09,0.36-0.27,0.5-0.63,0.5c-0.32,0-0.54-0.14-0.63-0.5c-0.09-0.32-0.18-0.95-0.18-1.81
		c0-0.91,0.09-1.5,0.18-1.81C25.39,34.84,25.61,34.7,25.89,34.7z"/>
	
		<linearGradient id="SVGID_8_" gradientUnits="userSpaceOnUse" x1="291.2759" y1="594.3494" x2="292.2759" y2="594.3494" gradientTransform="matrix(-0.2268 -8.7315 8.7315 -0.2268 -5075.7012 2718.2637)">
		<stop  offset="0" style="stop-color:#643C3A"/>
		<stop  offset="0.0118" style="stop-color:#643C3A"/>
		<stop  offset="0.3059" style="stop-color:#884244"/>
		<stop  offset="0.8314" style="stop-color:#45373A"/>
		<stop  offset="1" style="stop-color:#45373A"/>
	</linearGradient>
	<path class="st13" d="M48.29,31.26l-1.86,0.04v2.18h-0.77v1.54h0.77v2.81c0,0.73,0.04,1.27,0.14,1.59
		c0.09,0.36,0.27,0.63,0.59,0.86s0.77,0.36,1.36,0.36c0.23,0,0.45-0.05,0.68-0.09c0.18,0,0.36-0.04,0.5-0.04v-1.5
		c-0.18,0-0.36,0-0.5,0h-0.04c-0.27,0-0.5-0.05-0.63-0.09c-0.09-0.14-0.18-0.23-0.18-0.41c-0.04-0.14-0.04-0.45-0.04-0.91v-2.58
		h1.32v-1.54h-1.32v-2.22H48.29z"/>
	
		<linearGradient id="SVGID_9_" gradientUnits="userSpaceOnUse" x1="291.209" y1="594.3994" x2="292.2088" y2="594.3994" gradientTransform="matrix(-0.2268 -8.7319 8.7319 -0.2268 -5081.793 2717.9365)">
		<stop  offset="0" style="stop-color:#643C3A"/>
		<stop  offset="0.0118" style="stop-color:#643C3A"/>
		<stop  offset="0.3059" style="stop-color:#884244"/>
		<stop  offset="0.8314" style="stop-color:#45373A"/>
		<stop  offset="1" style="stop-color:#45373A"/>
	</linearGradient>
	<path class="st14" d="M43.26,36.11l1.81-0.05c-0.18-1.81-1.09-2.72-2.68-2.72c-0.91,0-1.63,0.32-2.13,0.95
		c-0.5,0.59-0.73,1.5-0.73,2.72s0.23,2.13,0.68,2.72c0.5,0.59,1.22,0.91,2.09,0.91c1.68,0,2.58-0.95,2.77-2.77l-1.81-0.09
		c-0.05,0.82-0.32,1.27-0.86,1.27c-0.27,0-0.5-0.14-0.68-0.5c-0.14-0.32-0.23-0.86-0.23-1.68c0-1.36,0.32-2.04,1-2.04
		c0.27,0,0.45,0.09,0.54,0.32S43.21,35.7,43.26,36.11z"/>
	
		<linearGradient id="SVGID_10_" gradientUnits="userSpaceOnUse" x1="308.4628" y1="564.2802" x2="309.4629" y2="564.2802" gradientTransform="matrix(0 -16.4189 3.6404 0 -2040.4956 5091.7544)">
		<stop  offset="0" style="stop-color:#4A4E47"/>
		<stop  offset="0.0118" style="stop-color:#4A4E47"/>
		<stop  offset="0.3059" style="stop-color:#974143"/>
		<stop  offset="0.8314" style="stop-color:#45373A"/>
		<stop  offset="1" style="stop-color:#45373A"/>
	</linearGradient>
	<rect x="11.92" y="10.62" class="st15" width="3.58" height="16.42"/>
	
		<linearGradient id="SVGID_11_" gradientUnits="userSpaceOnUse" x1="301.9472" y1="604.5823" x2="302.9469" y2="604.5823" gradientTransform="matrix(0 -12.4097 14.9363 0 -9004.4424 3774.136)">
		<stop  offset="0" style="stop-color:#4A4E47"/>
		<stop  offset="0.0118" style="stop-color:#4A4E47"/>
		<stop  offset="0.3059" style="stop-color:#974143"/>
		<stop  offset="0.8314" style="stop-color:#45373A"/>
		<stop  offset="1" style="stop-color:#45373A"/>
	</linearGradient>
	<path class="st16" d="M31.96,15.11c-0.45-0.32-1.09-0.45-1.9-0.45c-1.41,0-2.4,0.63-2.95,1.9c-0.27-1.27-1.18-1.9-2.63-1.9
		c-1.36,0-2.4,0.63-2.95,1.9v-1.68h-3.17v12.16h3.36v-7.08c0-1,0.09-1.72,0.27-2.13c0.18-0.36,0.54-0.54,1.09-0.54
		c0.45,0,0.73,0.14,0.82,0.36c0.14,0.27,0.23,0.86,0.23,1.72v7.66h3.4v-7.08c0-1.09,0.09-1.81,0.23-2.13
		c0.14-0.36,0.54-0.54,1.04-0.54c0.45,0,0.73,0.14,0.86,0.41c0.14,0.27,0.18,0.86,0.18,1.77v7.57h3.36V19.1
		c0-1.36-0.09-2.31-0.23-2.81C32.78,15.79,32.42,15.38,31.96,15.11z"/>
	
		<linearGradient id="SVGID_12_" gradientUnits="userSpaceOnUse" x1="301.9472" y1="604.5817" x2="302.9469" y2="604.5817" gradientTransform="matrix(0 -12.4097 14.9363 0 -8987.208 3774.136)">
		<stop  offset="0" style="stop-color:#4A4E47"/>
		<stop  offset="0.0118" style="stop-color:#4A4E47"/>
		<stop  offset="0.3059" style="stop-color:#974143"/>
		<stop  offset="0.8314" style="stop-color:#45373A"/>
		<stop  offset="1" style="stop-color:#45373A"/>
	</linearGradient>
	<path class="st17" d="M35.55,14.88v12.16h3.4v-7.08c0-1,0.04-1.72,0.27-2.13c0.18-0.36,0.54-0.54,1.09-0.54
		c0.45,0,0.73,0.14,0.86,0.36c0.09,0.27,0.18,0.86,0.18,1.72v7.66h3.36v-7.08c0-1.09,0.09-1.81,0.27-2.13
		c0.14-0.36,0.5-0.54,1.04-0.54c0.41,0,0.68,0.14,0.86,0.41c0.14,0.27,0.18,0.86,0.18,1.77v7.57h3.4V19.1
		c0-1.36-0.14-2.31-0.32-2.81c-0.14-0.5-0.5-0.91-0.95-1.18c-0.45-0.32-1.13-0.45-1.9-0.45c-1.45,0-2.4,0.63-2.95,1.9
		c-0.32-1.27-1.18-1.9-2.63-1.9c-1.41,0-2.4,0.63-2.95,1.9v-1.68C38.76,14.88,35.55,14.88,35.55,14.88z"/>
	
		<linearGradient id="SVGID_13_" gradientUnits="userSpaceOnUse" x1="301.9482" y1="596.961" x2="302.9478" y2="596.961" gradientTransform="matrix(0 -12.4097 9.4373 0 -5564.4551 3774.136)">
		<stop  offset="0" style="stop-color:#4A4E47"/>
		<stop  offset="0.0118" style="stop-color:#4A4E47"/>
		<stop  offset="0.3059" style="stop-color:#974143"/>
		<stop  offset="0.8314" style="stop-color:#45373A"/>
		<stop  offset="1" style="stop-color:#45373A"/>
	</linearGradient>
	<path class="st18" d="M73.74,16.56c-0.14-0.54-0.45-1-0.95-1.36c-0.54-0.36-1.18-0.54-2-0.54c-1.45,0-2.49,0.63-3.04,1.9v-1.68
		h-3.22v12.16h3.4v-7.12c0-1,0.09-1.68,0.27-2.09c0.23-0.36,0.59-0.54,1.18-0.54c0.41,0,0.68,0.09,0.86,0.32
		c0.23,0.18,0.32,0.68,0.32,1.5v7.94h3.4V19.1C73.96,17.97,73.92,17.15,73.74,16.56z"/>
	
		<linearGradient id="SVGID_14_" gradientUnits="userSpaceOnUse" x1="301.9296" y1="597.0188" x2="302.9304" y2="597.0188" gradientTransform="matrix(0 -12.4103 9.4378 0 -5577.2241 3774.3367)">
		<stop  offset="0" style="stop-color:#4A4E47"/>
		<stop  offset="0.0118" style="stop-color:#4A4E47"/>
		<stop  offset="0.3059" style="stop-color:#974143"/>
		<stop  offset="0.8314" style="stop-color:#45373A"/>
		<stop  offset="1" style="stop-color:#45373A"/>
	</linearGradient>
	<path class="st19" d="M58.63,14.88v6.21c0,1.22,0,2-0.09,2.4c-0.05,0.36-0.18,0.68-0.36,0.91c-0.27,0.18-0.59,0.27-1.04,0.27
		s-0.77-0.14-0.95-0.41C56.05,24.04,56,23.5,56,22.73v-7.85h-3.4v7.94c0,1.13,0.04,2.04,0.18,2.58c0.18,0.54,0.45,1,0.91,1.36
		c0.5,0.36,1.13,0.54,2,0.54c0.68,0,1.22-0.14,1.68-0.32c0.5-0.23,0.95-0.77,1.45-1.59v1.63h3.22V14.88H58.63z"/>
	
		<linearGradient id="SVGID_15_" gradientUnits="userSpaceOnUse" x1="302.3948" y1="597.939" x2="303.395" y2="597.939" gradientTransform="matrix(0 -12.6329 9.8834 0 -5735.6953 3847.5017)">
		<stop  offset="0" style="stop-color:#4A4E47"/>
		<stop  offset="0.0118" style="stop-color:#4A4E47"/>
		<stop  offset="0.3059" style="stop-color:#974143"/>
		<stop  offset="0.8314" style="stop-color:#45373A"/>
		<stop  offset="1" style="stop-color:#45373A"/>
	</linearGradient>
	<path class="st20" d="M174.15,24.95c-0.5,0-0.86-0.18-1.18-0.54c-0.27-0.36-0.45-1.09-0.45-2.18v-0.68h6.4
		c0-2.58-0.45-4.4-1.41-5.44c-0.95-0.95-2.09-1.45-3.45-1.45c-1.54,0-2.72,0.54-3.67,1.68c-0.91,1.09-1.36,2.72-1.36,4.81
		c0,1.91,0.41,3.36,1.32,4.49c0.82,1.09,2.04,1.68,3.72,1.68c2.68,0,4.31-1.41,4.85-4.26l-3.04-0.14
		C175.78,24.27,175.19,24.95,174.15,24.95z M174.15,16.92c1.04,0,1.59,0.77,1.59,2.31c0,0.09,0,0.18-0.05,0.36h-3.13
		C172.56,17.83,173.06,16.92,174.15,16.92z"/>
	
		<linearGradient id="SVGID_16_" gradientUnits="userSpaceOnUse" x1="301.9482" y1="596.9605" x2="302.9478" y2="596.9605" gradientTransform="matrix(0 -12.4097 9.4373 0 -5448.0957 3774.136)">
		<stop  offset="0" style="stop-color:#4A4E47"/>
		<stop  offset="0.0118" style="stop-color:#4A4E47"/>
		<stop  offset="0.3059" style="stop-color:#974143"/>
		<stop  offset="0.8314" style="stop-color:#45373A"/>
		<stop  offset="1" style="stop-color:#45373A"/>
	</linearGradient>
	<path class="st21" d="M180.86,14.88v12.16h3.4v-7.12c0-1,0.09-1.68,0.32-2.09c0.18-0.36,0.59-0.54,1.18-0.54
		c0.36,0,0.68,0.09,0.86,0.32c0.23,0.18,0.32,0.68,0.32,1.5v7.94h3.4V19.1c0-1.13-0.04-1.95-0.23-2.54c-0.18-0.54-0.5-1-1-1.36
		c-0.54-0.36-1.18-0.54-2-0.54c-1.45,0-2.45,0.63-2.99,1.9v-1.68C184.12,14.88,180.86,14.88,180.86,14.88z"/>
	
		<linearGradient id="SVGID_17_" gradientUnits="userSpaceOnUse" x1="309.0625" y1="601.428" x2="310.0622" y2="601.428" gradientTransform="matrix(0 -16.943 12.0384 0 -7079.2554 5263.7661)">
		<stop  offset="0" style="stop-color:#4A4E47"/>
		<stop  offset="0.0118" style="stop-color:#4A4E47"/>
		<stop  offset="0.3059" style="stop-color:#974143"/>
		<stop  offset="0.8314" style="stop-color:#45373A"/>
		<stop  offset="1" style="stop-color:#45373A"/>
	</linearGradient>
	<path class="st22" d="M167.03,27.04v-8.75h-5.71v2.81h2.45c0,2.18-0.73,3.31-2.22,3.31c-0.91,0-1.63-0.45-2.09-1.27
		c-0.45-0.77-0.73-2.13-0.73-4.13c0-2.22,0.27-3.67,0.73-4.49c0.5-0.82,1.13-1.22,2-1.22c1.32,0,2.09,1.09,2.31,3.22l3.26-0.5
		c-0.45-3.77-2.31-5.67-5.67-5.67c-2.13,0-3.72,0.82-4.76,2.36c-1.13,1.59-1.68,3.76-1.68,6.49c0,2.49,0.54,4.45,1.68,5.9
		c1.09,1.5,2.58,2.22,4.44,2.22c1.77,0,3.08-0.73,3.95-2.13l0.45,1.86L167.03,27.04L167.03,27.04z"/>
	
		<linearGradient id="SVGID_18_" gradientUnits="userSpaceOnUse" x1="301.9472" y1="604.5815" x2="302.9469" y2="604.5815" gradientTransform="matrix(0 -12.4097 14.9363 0 -8818.7861 3774.136)">
		<stop  offset="0" style="stop-color:#4A4E47"/>
		<stop  offset="0.0118" style="stop-color:#4A4E47"/>
		<stop  offset="0.3059" style="stop-color:#974143"/>
		<stop  offset="0.8314" style="stop-color:#45373A"/>
		<stop  offset="1" style="stop-color:#45373A"/>
	</linearGradient>
	<path class="st23" d="M214.42,17.29c0.45,0,0.77,0.14,0.91,0.41s0.18,0.86,0.18,1.77v7.57h3.36V19.1c0-1.36-0.05-2.31-0.23-2.81
		c-0.23-0.5-0.5-0.91-1-1.18c-0.5-0.32-1.09-0.45-1.91-0.45c-1.41,0-2.45,0.63-2.95,1.9c-0.27-1.27-1.18-1.9-2.63-1.9
		c-1.41,0-2.4,0.63-2.95,1.9v-1.68h-3.22v12.16h3.4v-7.08c0-1,0.09-1.72,0.27-2.13c0.18-0.36,0.54-0.54,1.09-0.54
		c0.45,0,0.73,0.14,0.82,0.36c0.18,0.27,0.23,0.86,0.23,1.72v7.66h3.4v-7.08c0-1.09,0.09-1.81,0.23-2.13
		C213.61,17.47,213.92,17.29,214.42,17.29z"/>
	
		<linearGradient id="SVGID_19_" gradientUnits="userSpaceOnUse" x1="302.3948" y1="597.9384" x2="303.395" y2="597.9384" gradientTransform="matrix(0 -12.6329 9.8834 0 -5712.6094 3847.5017)">
		<stop  offset="0" style="stop-color:#4A4E47"/>
		<stop  offset="0.0118" style="stop-color:#4A4E47"/>
		<stop  offset="0.3059" style="stop-color:#974143"/>
		<stop  offset="0.8314" style="stop-color:#45373A"/>
		<stop  offset="1" style="stop-color:#45373A"/>
	</linearGradient>
	<path class="st24" d="M197.1,14.66c-3.31,0-4.99,2.09-4.99,6.35c0,4.17,1.68,6.3,4.99,6.3c3.27,0,4.9-2.13,4.9-6.3
		C202,16.74,200.36,14.66,197.1,14.66z M198.23,24.09c-0.23,0.59-0.59,0.86-1.13,0.86c-0.59,0-0.95-0.27-1.13-0.86
		c-0.23-0.59-0.32-1.63-0.32-3.08c0-1.59,0.09-2.68,0.32-3.17c0.23-0.54,0.59-0.82,1.13-0.82c0.5,0,0.86,0.27,1.09,0.82
		c0.23,0.54,0.32,1.59,0.32,3.17C198.5,22.5,198.41,23.5,198.23,24.09z"/>
	
		<linearGradient id="SVGID_20_" gradientUnits="userSpaceOnUse" x1="308.4628" y1="560.7594" x2="309.4629" y2="560.7594" gradientTransform="matrix(0 -16.4189 3.4175 0 -1769.9852 5091.7544)">
		<stop  offset="0" style="stop-color:#4A4E47"/>
		<stop  offset="0.0118" style="stop-color:#4A4E47"/>
		<stop  offset="0.3059" style="stop-color:#974143"/>
		<stop  offset="0.8314" style="stop-color:#45373A"/>
		<stop  offset="1" style="stop-color:#45373A"/>
	</linearGradient>
	<rect x="144.71" y="10.62" class="st25" width="3.4" height="16.42"/>
	
		<linearGradient id="SVGID_21_" gradientUnits="userSpaceOnUse" x1="229.5773" y1="1580.4027" x2="230.5775" y2="1580.4027" gradientTransform="matrix(0 -3.3442 3.4928 0 -5402.1655 -3763.8203)">
		<stop  offset="0" style="stop-color:#4A4E47"/>
		<stop  offset="0.0118" style="stop-color:#4A4E47"/>
		<stop  offset="0.3059" style="stop-color:#974143"/>
		<stop  offset="0.8314" style="stop-color:#45373A"/>
		<stop  offset="1" style="stop-color:#45373A"/>
	</linearGradient>
	<rect x="116.14" y="10.57" class="st26" width="3.45" height="3.31"/>
	
		<linearGradient id="SVGID_22_" gradientUnits="userSpaceOnUse" x1="308.4628" y1="560.7598" x2="309.4629" y2="560.7598" gradientTransform="matrix(0 -16.4189 3.4175 0 -1827.0868 5091.7544)">
		<stop  offset="0" style="stop-color:#4A4E47"/>
		<stop  offset="0.0118" style="stop-color:#4A4E47"/>
		<stop  offset="0.3059" style="stop-color:#974143"/>
		<stop  offset="0.8314" style="stop-color:#45373A"/>
		<stop  offset="1" style="stop-color:#45373A"/>
	</linearGradient>
	<rect x="87.61" y="10.62" class="st27" width="3.4" height="16.42"/>
	
		<linearGradient id="SVGID_23_" gradientUnits="userSpaceOnUse" x1="310.7902" y1="600.0693" x2="311.7893" y2="600.0693" gradientTransform="matrix(0 -18.5773 11.0721 0 -6534.397 5805.0254)">
		<stop  offset="0" style="stop-color:#4A4E47"/>
		<stop  offset="0.0118" style="stop-color:#4A4E47"/>
		<stop  offset="0.3059" style="stop-color:#974143"/>
		<stop  offset="0.8314" style="stop-color:#45373A"/>
		<stop  offset="1" style="stop-color:#45373A"/>
	</linearGradient>
	<path class="st28" d="M114.42,15.02c0.27,0,0.54,0.04,0.77,0.09v-2.22c-0.27-0.05-0.59-0.09-0.95-0.09c-0.73,0-1.27,0.18-1.63,0.5
		c-0.32,0.41-0.54,1.04-0.64,1.9c-0.82-0.36-1.68-0.54-2.63-0.54c-1.36,0-2.45,0.32-3.27,0.95c-0.86,0.64-1.27,1.54-1.27,2.77
		c0,1.41,0.59,2.45,1.81,3.04c-1.41,0.73-2.09,1.63-2.09,2.68c0,0.91,0.5,1.63,1.59,2.13c-1.36,0.45-2.04,1.18-2.04,2.27
		c0,1.91,1.68,2.86,5.03,2.86c3.95,0,5.9-1.36,5.9-4.08c0-0.82-0.18-1.5-0.59-2.04c-0.36-0.5-0.91-0.86-1.5-1.04
		c-0.63-0.14-1.54-0.27-2.72-0.36c-1.36-0.05-2.18-0.14-2.45-0.23c-0.32-0.09-0.45-0.32-0.45-0.63c0-0.36,0.23-0.68,0.77-1
		c0.59,0.18,1.09,0.23,1.59,0.23c1.27,0,2.36-0.36,3.17-1c0.82-0.63,1.27-1.54,1.27-2.63c0-0.95-0.32-1.81-0.91-2.45
		C113.28,15.38,113.74,15.02,114.42,15.02z M107.98,26.54c0.5,0.04,1,0.14,1.5,0.14c0.86,0.04,1.45,0.09,1.68,0.13
		c0.32,0.09,0.55,0.18,0.68,0.36c0.18,0.23,0.27,0.45,0.27,0.77c0,0.86-0.77,1.27-2.4,1.27c-1.86,0-2.81-0.41-2.81-1.18
		C106.89,27.35,107.25,26.9,107.98,26.54z M110.29,19.92c-0.18,0.32-0.45,0.45-0.86,0.45c-0.77,0-1.13-0.59-1.13-1.86
		c0-0.73,0.09-1.27,0.27-1.59c0.18-0.27,0.5-0.45,0.91-0.45c0.73,0,1.09,0.68,1.09,1.95C110.56,19.15,110.47,19.65,110.29,19.92z"/>
	
		<linearGradient id="SVGID_24_" gradientUnits="userSpaceOnUse" x1="302.3948" y1="597.9387" x2="303.395" y2="597.9387" gradientTransform="matrix(0 -12.6329 9.8834 0 -5811.7578 3847.5017)">
		<stop  offset="0" style="stop-color:#4A4E47"/>
		<stop  offset="0.0118" style="stop-color:#4A4E47"/>
		<stop  offset="0.3059" style="stop-color:#974143"/>
		<stop  offset="0.8314" style="stop-color:#45373A"/>
		<stop  offset="1" style="stop-color:#45373A"/>
	</linearGradient>
	<path class="st29" d="M97.91,14.66c-3.31,0-4.94,2.09-4.94,6.35c0,4.17,1.63,6.3,4.94,6.3c3.27,0,4.94-2.13,4.94-6.3
		C102.85,16.74,101.17,14.66,97.91,14.66z M99.04,24.09c-0.18,0.59-0.59,0.86-1.13,0.86c-0.59,0-0.95-0.27-1.13-0.86
		s-0.27-1.63-0.27-3.08c0-1.59,0.09-2.68,0.32-3.17c0.23-0.54,0.59-0.82,1.09-0.82s0.91,0.27,1.13,0.82
		c0.18,0.54,0.27,1.59,0.27,3.17C99.32,22.5,99.27,23.5,99.04,24.09z"/>
	
		<linearGradient id="SVGID_25_" gradientUnits="userSpaceOnUse" x1="302.3948" y1="597.9385" x2="303.395" y2="597.9385" gradientTransform="matrix(0 -12.6329 9.8834 0 -5828.9453 3847.5017)">
		<stop  offset="0" style="stop-color:#4A4E47"/>
		<stop  offset="0.0118" style="stop-color:#4A4E47"/>
		<stop  offset="0.3059" style="stop-color:#974143"/>
		<stop  offset="0.8314" style="stop-color:#45373A"/>
		<stop  offset="1" style="stop-color:#45373A"/>
	</linearGradient>
	<path class="st30" d="M80.72,14.66c-3.31,0-4.94,2.09-4.94,6.35c0,4.17,1.63,6.3,4.94,6.3c3.27,0,4.94-2.13,4.94-6.3
		C85.66,16.74,83.99,14.66,80.72,14.66z M81.85,24.09c-0.23,0.59-0.59,0.86-1.13,0.86c-0.59,0-0.95-0.27-1.13-0.86
		c-0.23-0.59-0.32-1.63-0.32-3.08c0-1.59,0.09-2.68,0.32-3.17c0.23-0.54,0.59-0.82,1.13-0.82c0.5,0,0.91,0.27,1.09,0.82
		c0.23,0.54,0.32,1.59,0.32,3.17C82.13,22.5,82.04,23.5,81.85,24.09z"/>
	
		<linearGradient id="SVGID_26_" gradientUnits="userSpaceOnUse" x1="302.3948" y1="597.7999" x2="303.3954" y2="597.7999" gradientTransform="matrix(0 -12.6329 9.8091 0 -5726.314 3847.5017)">
		<stop  offset="0" style="stop-color:#4A4E47"/>
		<stop  offset="0.0118" style="stop-color:#4A4E47"/>
		<stop  offset="0.3059" style="stop-color:#974143"/>
		<stop  offset="0.8314" style="stop-color:#45373A"/>
		<stop  offset="1" style="stop-color:#45373A"/>
	</linearGradient>
	<path class="st31" d="M142.27,24.41v-4.9c0-1.22-0.09-2.13-0.27-2.68c-0.18-0.59-0.59-1.09-1.31-1.5
		c-0.68-0.45-1.59-0.68-2.77-0.68c-1.36,0-2.45,0.32-3.31,1c-0.91,0.63-1.45,1.59-1.59,2.81l3.27,0.32c0.05-1.27,0.5-1.86,1.41-1.86
		c0.45,0,0.77,0.14,0.91,0.45c0.18,0.32,0.27,0.91,0.27,1.68v0.45c-2.36,0.14-4.04,0.59-4.94,1.31c-0.86,0.77-1.27,1.81-1.27,3.13
		c0,1.13,0.27,1.95,0.86,2.49c0.59,0.59,1.36,0.86,2.31,0.86c1.5,0,2.54-0.73,3.31-2.13c0,0.95,0.05,1.54,0.14,1.86h3.17
		C142.31,26.77,142.27,25.86,142.27,24.41z M138.86,21.87c0,1.22-0.18,2.09-0.5,2.54c-0.36,0.45-0.68,0.68-1.13,0.68
		c-0.73,0-1.13-0.54-1.13-1.54c0-0.72,0.23-1.31,0.68-1.63c0.41-0.36,1.13-0.54,2.09-0.64L138.86,21.87L138.86,21.87z"/>
	
		<linearGradient id="SVGID_27_" gradientUnits="userSpaceOnUse" x1="302.3948" y1="597.2847" x2="303.395" y2="597.2847" gradientTransform="matrix(0 -12.6329 9.5861 0 -5599.3057 3847.5017)">
		<stop  offset="0" style="stop-color:#4A4E47"/>
		<stop  offset="0.0118" style="stop-color:#4A4E47"/>
		<stop  offset="0.3059" style="stop-color:#974143"/>
		<stop  offset="0.8314" style="stop-color:#45373A"/>
		<stop  offset="1" style="stop-color:#45373A"/>
	</linearGradient>
	<path class="st32" d="M126.53,14.66c-1.59,0-2.81,0.54-3.67,1.63s-1.32,2.68-1.32,4.72c0,2.09,0.41,3.67,1.27,4.76
		c0.82,1,2,1.54,3.54,1.54c2.95,0,4.54-1.59,4.76-4.81l-3.13-0.18c-0.05,1.5-0.54,2.22-1.41,2.22c-0.54,0-0.95-0.27-1.18-0.82
		c-0.32-0.54-0.45-1.5-0.45-2.9c0-2.4,0.54-3.58,1.72-3.58c0.45,0,0.77,0.18,0.95,0.59c0.18,0.36,0.32,0.91,0.36,1.63l3.13-0.09
		C130.88,16.24,129.34,14.66,126.53,14.66z"/>
	
		<linearGradient id="SVGID_28_" gradientUnits="userSpaceOnUse" x1="302.3274" y1="602.5702" x2="303.3272" y2="602.5702" gradientTransform="matrix(0.1513 -12.6994 12.6994 0.1513 -7580.2622 3775.866)">
		<stop  offset="0" style="stop-color:#4A4E47"/>
		<stop  offset="0.0118" style="stop-color:#4A4E47"/>
		<stop  offset="0.3059" style="stop-color:#974143"/>
		<stop  offset="0.8314" style="stop-color:#45373A"/>
		<stop  offset="1" style="stop-color:#45373A"/>
	</linearGradient>
	<rect x="116.14" y="14.88" class="st33" width="3.4" height="12.16"/>
	
		<linearGradient id="SVGID_29_" gradientUnits="userSpaceOnUse" x1="302.3948" y1="597.9394" x2="303.395" y2="597.9394" gradientTransform="matrix(0 -12.6329 9.8834 0 -5684.0391 3847.5017)">
		<stop  offset="0" style="stop-color:#4A4E47"/>
		<stop  offset="0.0118" style="stop-color:#4A4E47"/>
		<stop  offset="0.3059" style="stop-color:#974143"/>
		<stop  offset="0.8314" style="stop-color:#45373A"/>
		<stop  offset="1" style="stop-color:#45373A"/>
	</linearGradient>
	<path class="st34" d="M225.81,24.95c-0.5,0-0.86-0.18-1.18-0.54c-0.27-0.36-0.45-1.09-0.45-2.18v-0.68h6.4
		c0-2.58-0.45-4.4-1.41-5.44c-0.91-0.95-2.09-1.45-3.45-1.45c-1.54,0-2.72,0.54-3.67,1.68c-0.91,1.09-1.36,2.72-1.36,4.81
		c0,1.91,0.45,3.36,1.31,4.49c0.82,1.09,2.09,1.68,3.72,1.68c2.72,0,4.31-1.41,4.85-4.26l-3.04-0.14
		C227.44,24.27,226.85,24.95,225.81,24.95z M225.81,16.92c1.04,0,1.54,0.77,1.54,2.31c0,0.09,0,0.18,0,0.36h-3.13
		C224.22,17.83,224.76,16.92,225.81,16.92z"/>
</g>
<g>
	<path class="st35" d="M109.65,101.84V86.93h6.59c0.69,0,1.32,0.14,1.9,0.43s1.08,0.67,1.5,1.13c0.42,0.47,0.75,1,0.99,1.6
		s0.36,1.19,0.36,1.79c0,0.97-0.24,1.85-0.73,2.64s-1.14,1.36-1.96,1.71l3.4,5.61h-3.26l-3.04-5h-2.86v5H109.65L109.65,101.84z
		 M112.55,94.3h3.63c0.27,0,0.51-0.06,0.75-0.19c0.23-0.13,0.43-0.3,0.6-0.51s0.3-0.47,0.4-0.77s0.15-0.61,0.15-0.94
		c0-0.35-0.06-0.67-0.17-0.97c-0.11-0.29-0.26-0.55-0.45-0.77s-0.41-0.39-0.65-0.5c-0.25-0.12-0.49-0.18-0.75-0.18h-3.51V94.3
		L112.55,94.3z"/>
	<path class="st35" d="M126.52,92.28v9.56h-2.9V86.93h2.25l7.77,9.79v-9.76h2.9v14.89h-2.35L126.52,92.28z"/>
	<path class="st35" d="M143.88,86.93h2.56l5.67,14.91h-2.98l-1.39-3.72h-5.21l-1.37,3.72h-2.98L143.88,86.93z M147.22,96.08
		l-2.06-5.86l-2.14,5.86H147.22z"/>
	<path class="st35" d="M153.1,97.34V94.8h6.36v2.54C159.46,97.34,153.1,97.34,153.1,97.34z"/>
	<path class="st35" d="M166.1,102.05c-0.92,0-1.83-0.15-2.71-0.44s-1.64-0.71-2.27-1.26l1.05-1.76c0.67,0.48,1.33,0.84,1.96,1.08
		c0.64,0.25,1.27,0.37,1.9,0.37c0.56,0,1-0.11,1.32-0.32s0.48-0.51,0.48-0.9s-0.19-0.68-0.57-0.86s-0.99-0.39-1.85-0.63
		c-0.71-0.2-1.32-0.39-1.83-0.57s-0.91-0.39-1.22-0.62s-0.53-0.5-0.67-0.8s-0.21-0.66-0.21-1.08c0-0.56,0.11-1.06,0.33-1.51
		c0.22-0.45,0.52-0.83,0.91-1.14c0.39-0.32,0.85-0.56,1.38-0.72s1.1-0.25,1.71-0.25c0.83,0,1.6,0.12,2.32,0.36s1.38,0.62,1.99,1.15
		l-1.13,1.7c-0.56-0.42-1.1-0.73-1.63-0.92s-1.05-0.29-1.56-0.29c-0.48,0-0.88,0.1-1.2,0.29s-0.48,0.51-0.48,0.94
		c0,0.2,0.04,0.36,0.12,0.48s0.2,0.24,0.37,0.34s0.39,0.19,0.66,0.28s0.61,0.19,1.02,0.28c0.76,0.2,1.4,0.39,1.94,0.59
		s0.98,0.42,1.32,0.67s0.6,0.54,0.76,0.87c0.16,0.33,0.24,0.72,0.24,1.19c0,1.08-0.4,1.93-1.2,2.55
		C168.56,101.73,167.47,102.05,166.1,102.05z"/>
	<path class="st35" d="M177.48,102.05c-0.88,0-1.68-0.15-2.39-0.45c-0.71-0.3-1.32-0.71-1.83-1.23s-0.89-1.12-1.17-1.81
		c-0.27-0.69-0.41-1.41-0.41-2.16c0-0.78,0.13-1.52,0.4-2.21c0.27-0.69,0.65-1.3,1.15-1.83s1.12-0.94,1.84-1.25s1.53-0.46,2.43-0.46
		s1.7,0.15,2.4,0.46c0.71,0.31,1.31,0.72,1.81,1.24s0.88,1.12,1.13,1.81c0.26,0.69,0.39,1.4,0.39,2.14c0,0.18,0,0.36-0.01,0.53
		s-0.02,0.31-0.05,0.42h-8.51c0.04,0.43,0.15,0.82,0.32,1.15s0.38,0.62,0.65,0.86s0.57,0.42,0.9,0.55s0.69,0.19,1.05,0.19
		c0.56,0,1.09-0.14,1.59-0.41c0.5-0.27,0.84-0.63,1.02-1.08l2.41,0.67c-0.41,0.84-1.05,1.53-1.94,2.07S178.72,102.05,177.48,102.05z
		 M180.34,95.41c-0.07-0.83-0.38-1.49-0.91-1.98s-1.19-0.75-1.96-0.75c-0.38,0-0.73,0.07-1.06,0.2s-0.62,0.32-0.87,0.56
		s-0.46,0.53-0.62,0.86s-0.26,0.71-0.28,1.11C174.63,95.41,180.34,95.41,180.34,95.41z"/>
	<path class="st35" d="M189.12,102.05c-0.7,0-1.34-0.15-1.93-0.45c-0.59-0.3-1.1-0.71-1.52-1.23s-0.76-1.12-1-1.82
		c-0.24-0.69-0.36-1.44-0.36-2.24c0-0.8,0.13-1.54,0.39-2.23s0.62-1.28,1.08-1.8c0.46-0.51,1.01-0.91,1.64-1.21s1.31-0.44,2.04-0.44
		c0.84,0,1.58,0.19,2.23,0.58s1.17,0.89,1.57,1.52v-1.91h2.46v12.1c0,0.31,0.06,0.52,0.17,0.64s0.31,0.19,0.59,0.2v2.39
		c-0.24,0.04-0.5,0.07-0.78,0.1c-0.28,0.02-0.53,0.03-0.76,0.03c-0.28,0-0.54-0.05-0.79-0.15c-0.24-0.1-0.46-0.23-0.64-0.4
		s-0.33-0.37-0.44-0.6s-0.17-0.49-0.17-0.77V99.9c-0.41,0.71-0.93,1.25-1.57,1.61C190.68,101.87,189.94,102.05,189.12,102.05z
		 M190.17,99.65c0.6,0,1.13-0.17,1.57-0.5c0.45-0.34,0.83-0.77,1.15-1.3v-2.6c-0.08-0.31-0.22-0.6-0.41-0.86
		c-0.19-0.27-0.41-0.5-0.66-0.7s-0.52-0.36-0.82-0.47s-0.59-0.17-0.88-0.17c-0.43,0-0.83,0.09-1.19,0.27s-0.67,0.43-0.92,0.75
		c-0.26,0.31-0.46,0.68-0.61,1.08c-0.15,0.41-0.22,0.83-0.22,1.26c0,0.46,0.07,0.89,0.22,1.28s0.35,0.74,0.61,1.03
		s0.57,0.53,0.93,0.69C189.31,99.57,189.72,99.65,190.17,99.65z"/>
</g>
<path class="st36" d="M39.2,98.89c3.33-3.2,12.89-4.41,17.13-3.14c4.85,1.45,9.77,3.1,14.28,3.43"/>
<g>
	<path class="st36" d="M21.5,88.61c7.35,3.51,13.42-0.19,20.56,2.28"/>
	<g>
		<path d="M42.92,88.61h0.44l1.26,3.19h-0.53l-0.34-0.87h-1.23l-0.33,0.87h-0.53L42.92,88.61z M43.65,90.56l-0.51-1.37l-0.53,1.37
			H43.65z"/>
		<path d="M45.96,88.61h0.44l1.26,3.19h-0.53l-0.34-0.87h-1.23l-0.33,0.87H44.7L45.96,88.61z M46.69,90.56l-0.51-1.37l-0.53,1.37
			H46.69z"/>
		<path d="M48.99,88.61h0.44l1.26,3.19h-0.53l-0.34-0.87h-1.23l-0.33,0.87h-0.53L48.99,88.61z M49.73,90.56l-0.51-1.37l-0.53,1.37
			H49.73z"/>
	</g>
</g>
<g>
	<path class="st36" d="M28.07,76.05c7.14,0,12.71,0.48,18.85,4.85c3.77,2.69,19.65,15.97,24.27,11.14"/>
	<g>
		<path d="M71.85,89.84l0.49-0.04l1.68,3.43l-0.59,0.05l-0.45-0.93l-1.37,0.11l-0.29,0.99l-0.59,0.05L71.85,89.84z M72.84,91.94
			l-0.69-1.48l-0.46,1.57L72.84,91.94z"/>
		<path d="M75.21,89.57l0.49-0.04l1.68,3.43l-0.59,0.05l-0.45-0.93l-1.37,0.11l-0.29,0.99l-0.59,0.05L75.21,89.57z M76.2,91.67
			l-0.69-1.47l-0.46,1.57L76.2,91.67z"/>
		<path d="M78.58,89.3l0.49-0.04l1.68,3.43l-0.59,0.05l-0.45-0.93l-1.37,0.11l-0.29,0.99l-0.59,0.05L78.58,89.3z M79.57,91.4
			l-0.69-1.47l-0.46,1.57L79.57,91.4z"/>
		<path d="M81.94,89.03l0.49-0.04l1.68,3.43l-0.59,0.05l-0.45-0.93l-1.37,0.11l-0.29,0.99l-0.59,0.05L81.94,89.03z M82.93,91.13
			l-0.69-1.47l-0.46,1.57L82.93,91.13z"/>
		<path d="M85.31,88.76l0.49-0.04l1.68,3.43l-0.59,0.05l-0.45-0.93l-1.37,0.11l-0.29,0.99l-0.59,0.05L85.31,88.76z M86.29,90.85
			l-0.69-1.47l-0.46,1.57L86.29,90.85z"/>
		<path d="M88.67,88.49l0.49-0.04l1.68,3.43l-0.59,0.05L89.8,91l-1.36,0.11l-0.29,0.99l-0.59,0.05L88.67,88.49z M89.66,90.58
			l-0.69-1.47l-0.46,1.57L89.66,90.58z"/>
		<path d="M92.03,88.22l0.49-0.04l1.68,3.43l-0.59,0.05l-0.45-0.93l-1.37,0.11l-0.29,0.99l-0.59,0.05L92.03,88.22z M93.02,90.31
			l-0.69-1.48l-0.46,1.57L93.02,90.31z"/>
		<path d="M95.4,87.94l0.49-0.04l1.68,3.43l-0.59,0.05l-0.45-0.93l-1.37,0.11l-0.29,0.99l-0.59,0.05L95.4,87.94z M96.38,90.04
			l-0.69-1.47l-0.46,1.57L96.38,90.04z"/>
	</g>
</g>
<g>
	<path d="M72.55,95.89l0.47-0.04l1.67,3.26l-0.56,0.06l-0.45-0.89l-1.31,0.13l-0.26,0.96l-0.57,0.06L72.55,95.89z M73.53,97.89
		l-0.69-1.4L72.42,98L73.53,97.89z"/>
	<path d="M75.73,95.54l0.47-0.06l1.73,3.23l-0.56,0.07L76.9,97.9l-1.31,0.15l-0.25,0.96l-0.57,0.07L75.73,95.54z M76.75,97.52
		l-0.71-1.39l-0.39,1.52L76.75,97.52z"/>
	<path d="M79.04,95.19l0.47-0.04l1.6,3.3l-0.57,0.04l-0.43-0.9l-1.31,0.1l-0.28,0.95l-0.57,0.04L79.04,95.19z M79.98,97.21
		l-0.66-1.42l-0.45,1.5L79.98,97.21z"/>
	<path d="M82.74,95.11l0.47,0.04l1.01,3.52l-0.56-0.05l-0.27-0.96l-1.31-0.13l-0.44,0.89l-0.57-0.06L82.74,95.11z M83.32,97.26
		l-0.4-1.51l-0.7,1.4L83.32,97.26z"/>
	<path d="M86.77,96.25l0.42,0.22l-0.39,3.64l-0.5-0.26l0.11-0.99l-1.17-0.61l-0.75,0.66l-0.51-0.26L86.77,96.25z M86.49,98.46
		l0.19-1.55l-1.18,1.03L86.49,98.46z"/>
</g>
<g>
	<path class="st37" d="M346.11,66.08V55.34c0-5.48,1.31-9.49,3.93-12.03c2.62-2.54,6.13-3.81,10.53-3.81c2.84,0,5.32,0.52,7.44,1.56
		s3.76,2.51,4.92,4.41s1.74,4.09,1.74,6.57v0.24h-4.38v-0.24c0-2.64-0.87-4.73-2.61-6.27s-4.09-2.31-7.05-2.31
		c-3.32,0-5.84,0.95-7.56,2.85c-1.72,1.9-2.58,4.97-2.58,9.21v10.8c0,7.72,3.4,11.58,10.2,11.58c3.16,0,5.57-0.86,7.23-2.58
		s2.49-4.46,2.49-8.22v-3.18h-9.9v-3.78h14.28v6.18c0,5.44-1.28,9.4-3.84,11.88s-6.02,3.72-10.38,3.72c-4.4,0-7.91-1.27-10.53-3.81
		C347.42,75.57,346.11,71.56,346.11,66.08z"/>
	<path class="st37" d="M389.72,58.4h17.76v3.96h-17.76v15.12h20.76v3.96h-25.14v-41.4h25.14V44h-20.76L389.72,58.4L389.72,58.4z"/>
	<path class="st37" d="M450.14,81.44h-4.38l-21.42-33.36v33.36h-4.38v-41.4h4.38l21.42,33.24V40.04h4.38V81.44z"/>
	<path class="st37" d="M465.92,58.4h17.76v3.96h-17.76v15.12h20.76v3.96h-25.14v-41.4h25.14V44h-20.76L465.92,58.4L465.92,58.4z"/>
	<path class="st37" d="M522.98,69.74h4.32c0.56,5.48,3.84,8.22,9.84,8.22c3.12,0,5.49-0.66,7.11-1.98s2.43-3.24,2.43-5.76
		c0-2.28-0.64-4-1.92-5.16c-1.28-1.16-3.22-1.96-5.82-2.4l-4.68-0.78c-3.36-0.56-5.94-1.71-7.74-3.45s-2.7-4.19-2.7-7.35
		c0-3.64,1.22-6.48,3.66-8.52s5.66-3.06,9.66-3.06c3.68,0,6.69,0.95,9.03,2.85s3.73,4.79,4.17,8.67h-4.32
		c-0.48-5.16-3.46-7.74-8.94-7.74c-2.84,0-5.05,0.67-6.63,2.01s-2.37,3.17-2.37,5.49c0,2.04,0.61,3.63,1.83,4.77
		c1.22,1.14,3.07,1.93,5.55,2.37l4.8,0.84c3.48,0.6,6.14,1.8,7.98,3.6S551,66.7,551,69.98c0,3.76-1.26,6.67-3.78,8.73
		s-5.98,3.09-10.38,3.09c-4.16,0-7.42-1.02-9.78-3.06C524.7,76.7,523.34,73.7,522.98,69.74z"/>
	<path class="st37" d="M564.74,70.04v11.4h-4.38v-41.4h4.38v24.12l19.14-24.12h5.22l-13.08,16.14l14.94,25.26h-5.1L573.2,59.6
		L564.74,70.04z"/>
	<path class="st37" d="M610.4,81.44h-4.38v-17.4l-12.36-24h4.74l9.78,19.86l9.84-19.86h4.74L610.4,64.1V81.44z"/>
	<path class="st37" d="M634.16,40.04v37.44h20.64v3.96h-25.02v-41.4C629.78,40.04,634.16,40.04,634.16,40.04z"/>
	<path class="st37" d="M668.18,40.04v41.4h-4.38v-41.4H668.18z"/>
	<path class="st37" d="M710.24,81.44h-4.38l-21.42-33.36v33.36h-4.38v-41.4h4.38l21.42,33.24V40.04h4.38V81.44z"/>
	<path class="st37" d="M726.02,58.4h17.76v3.96h-17.76v15.12h20.76v3.96h-25.14v-41.4h25.14V44h-20.76V58.4z"/>
</g>
</svg>
